<?xml version="1.0" standalone="no"?>
<!DOCTYPE svg PUBLIC "-//W3C//DTD SVG 20010904//EN"
 "http://www.w3.org/TR/2001/REC-SVG-20010904/DTD/svg10.dtd">
<svg version="1.0" xmlns="http://www.w3.org/2000/svg"
 width="405.000000pt" height="405.000000pt" viewBox="0 0 405.000000 405.000000"
 preserveAspectRatio="xMidYMid meet">
<metadata>
Created by potrace 1.14, written by Peter Selinger 2001-2017
</metadata>
<g transform="translate(0.000000,405.000000) scale(0.100000,-0.100000)"
fill="#000000" stroke="none">
<path d="M2132 4033 c-36 -18 -102 -79 -128 -119 l-16 -24 -42 38 c-22 20 -58
48 -80 61 -35 22 -42 23 -73 12 -19 -7 -46 -14 -59 -16 -49 -5 -92 -73 -128
-199 -17 -59 -17 -59 -34 -35 -40 59 -133 123 -210 145 -51 15 -55 15 -75 -4
-12 -11 -39 -27 -60 -36 -61 -25 -77 -73 -74 -221 l2 -121 -59 48 c-85 68
-164 104 -257 115 -42 4 -48 2 -68 -24 -14 -16 -35 -30 -54 -33 -24 -4 -36
-13 -48 -39 -23 -49 -24 -170 -2 -256 l18 -70 -82 -1 c-107 -2 -149 -22 -184
-87 -23 -44 -25 -54 -17 -100 15 -81 98 -233 171 -314 l20 -23 -24 -1 c-13 -1
-33 -3 -44 -4 -11 -1 -42 -5 -70 -8 -66 -8 -187 -43 -236 -67 -52 -27 -74 -53
-77 -91 -1 -17 -9 -44 -17 -59 -22 -43 -19 -62 21 -121 46 -68 126 -135 232
-195 l83 -47 -68 -18 c-91 -23 -197 -64 -236 -90 -18 -12 -55 -44 -83 -72 -50
-48 -52 -50 -42 -85 7 -26 7 -46 -2 -69 -10 -29 -9 -37 10 -62 47 -67 147
-125 269 -157 36 -10 67 -18 68 -19 2 -1 -23 -28 -55 -61 -67 -69 -132 -186
-132 -236 0 -46 49 -113 95 -132 19 -8 62 -18 95 -22 33 -4 60 -10 60 -14 0
-4 -7 -20 -15 -36 -26 -53 -36 -158 -21 -220 8 -32 71 -101 110 -121 47 -25
145 -20 258 13 14 4 15 0 6 -38 -11 -47 -2 -201 12 -229 5 -9 25 -20 44 -23
21 -4 44 -18 56 -34 18 -23 29 -27 68 -27 64 1 175 56 290 144 l92 70 1 -57
c2 -60 2 -69 13 -142 15 -110 47 -204 87 -259 23 -33 35 -41 62 -41 17 -1 43
-7 57 -15 57 -33 123 -8 202 77 33 35 39 37 45 21 11 -32 65 -105 106 -145
l40 -38 66 6 c38 4 74 13 85 23 36 30 96 138 120 213 4 13 18 4 69 -46 35 -35
79 -70 97 -79 38 -20 76 -22 86 -6 4 7 23 9 49 6 35 -5 46 -3 62 16 63 68 96
210 97 414 1 62 4 113 7 113 4 0 13 -10 22 -22 30 -46 184 -194 241 -232 70
-46 182 -87 248 -89 80 -3 138 56 146 148 8 99 -41 281 -117 438 -21 42 -35
77 -32 77 3 0 29 -9 58 -20 74 -28 97 -32 198 -35 124 -5 188 19 216 78 10 23
27 57 38 75 13 22 17 44 14 70 -7 54 -53 147 -95 196 -10 11 -18 22 -18 26 0
3 35 7 77 8 82 3 157 25 228 67 51 30 58 38 62 83 2 19 13 47 25 63 20 27 21
33 9 77 -23 89 -108 192 -224 271 -50 34 -236 125 -272 133 -15 3 -5 11 39 31
158 72 375 257 431 366 26 52 26 55 10 90 -9 20 -18 51 -20 70 -5 41 -25 65
-68 82 -18 7 -33 13 -35 15 -2 1 10 23 25 50 16 27 41 77 56 111 23 56 25 64
11 78 -9 8 -19 15 -23 15 -10 0 -41 62 -36 71 7 11 -29 37 -66 47 -60 16 -226
6 -324 -20 -22 -5 -48 -12 -59 -14 -42 -8 -133 -37 -160 -51 l-30 -16 19 29
c115 174 172 304 170 384 -4 115 -21 149 -100 188 -37 18 -44 18 -92 6 -55
-14 -139 -53 -184 -85 l-27 -19 1 98 c1 176 -25 251 -84 244 -4 -1 -21 15 -39
34 -27 31 -36 34 -63 29 -72 -15 -221 -122 -310 -222 -33 -37 -47 -42 -47 -15
0 28 -38 139 -72 210 -16 35 -49 84 -73 108 -35 37 -47 44 -70 40 -15 -3 -46
1 -69 9 -51 18 -54 18 -94 -2z"/>
</g>
</svg>
